<?xml version="1.0" standalone="no"?><!DOCTYPE svg PUBLIC "-//W3C//DTD SVG 1.1//EN" "http://www.w3.org/Graphics/SVG/1.1/DTD/svg11.dtd"><svg t="1647596142853" class="icon" viewBox="0 0 1024 1024" version="1.1" xmlns="http://www.w3.org/2000/svg" p-id="30682" width="32" height="32" xmlns:xlink="http://www.w3.org/1999/xlink"><defs><style type="text/css"></style></defs><path d="M3.303226 122.350979h1017.389347v52.851394H3.303226z" p-id="30683" fill="#ffffff"></path><path d="M798.452459 127.107604h-52.851395V105.702789a52.851395 52.851395 0 0 0-52.851395-52.851394H360.578654a52.851395 52.851395 0 0 0-52.851395 52.851394v21.404815h-52.851395V105.702789a105.702789 105.702789 0 0 1 105.70279-105.702789h332.171015a105.702789 105.702789 0 0 1 105.70279 105.702789z" p-id="30684" fill="#ffffff"></path><path d="M790.52475 1023.995772H281.830076a132.128487 132.128487 0 0 1-132.128487-132.128487l-26.425697-769.516306h826.860069l-26.425697 770.573334a132.128487 132.128487 0 0 1-133.185514 131.071459zM177.184314 175.202373l26.425698 715.872141a79.277092 79.277092 0 0 0 79.277092 79.277092h507.637646a79.277092 79.277092 0 0 0 79.277092-79.277092l26.425697-716.664912z" p-id="30685" fill="#ffffff"></path><path d="M351.858174 334.285071h48.359026v477.776608h-48.359026zM513.583441 334.285071h48.359027v477.776608h-48.359027zM675.572966 334.285071h48.359026v477.776608h-48.359026z" p-id="30686" fill="#ffffff"></path></svg>