<?xml version="1.0" standalone="no"?><!DOCTYPE svg PUBLIC "-//W3C//DTD SVG 1.1//EN" "http://www.w3.org/Graphics/SVG/1.1/DTD/svg11.dtd"><svg t="1647588376080" class="icon" viewBox="0 0 1024 1024" version="1.1" xmlns="http://www.w3.org/2000/svg" p-id="24279" xmlns:xlink="http://www.w3.org/1999/xlink" width="128" height="128"><defs><style type="text/css"></style></defs><path d="M962.6 471H553V61.4c0-22.5-18.4-41-41-41-22.5 0-41 18.4-41 41V471H61.4c-22.5 0-41 18.4-41 41 0 22.5 18.4 41 41 41H471v409.6c0 22.5 18.4 41 41 41 22.5 0 41-18.4 41-41V553h409.6c22.5 0 41-18.4 41-41-0.1-22.5-18.5-41-41-41z" p-id="24280"></path></svg>