<?xml version="1.0" standalone="no"?><!DOCTYPE svg PUBLIC "-//W3C//DTD SVG 1.1//EN" "http://www.w3.org/Graphics/SVG/1.1/DTD/svg11.dtd"><svg t="1647583505262" class="icon" viewBox="0 0 1024 1024" version="1.1" xmlns="http://www.w3.org/2000/svg" p-id="7973" width="64" height="64" xmlns:xlink="http://www.w3.org/1999/xlink"><defs><style type="text/css"></style></defs><path d="M512 1024C229.225412 1024 0 794.774588 0 512S229.225412 0 512 0s512 229.225412 512 512-229.225412 512-512 512z m13.613176-813.176471C420.683294 229.948235 315.723294 248.229647 210.823529 267.023059v490.375529c104.417882 18.703059 208.805647 36.562824 313.22353 55.777883h42.465882v-55.055059h205.432471c11.685647-0.722824 24.576 0 34.575059-7.107765 8.011294-12.649412 5.933176-28.310588 6.656-42.496-0.722824-137.848471 0.481882-276.178824-0.722824-414.208a23.792941 23.792941 0 0 0-26.413176-26.804706c-73.095529-1.415529-146.251294 0-219.497412-0.602353V210.823529h-40.96z m36.382118 78.576942h224.978824V734.569412h-224.978824v-55.657412h177.272471v-28.129882H561.995294v-34.484706h177.272471v-28.129883H561.995294v-34.484705h177.272471v-28.129883H561.995294v-35.177412h177.272471v-27.105882H561.995294v-35.177412h177.272471v-27.407059H561.995294v-34.846117h177.272471v-27.798588H561.995294V289.430588z m-213.232941 122.88c12.950588-0.752941 25.901176-1.325176 38.851765-2.017883 9.095529 46.983529 18.371765 93.846588 28.220235 140.709647 7.710118-48.338824 16.263529-96.466824 24.515765-144.655059 13.613176-0.481882 27.226353-1.264941 40.839529-2.108235-15.450353 67.403294-28.912941 135.439059-45.778823 202.420706-11.384471 6.023529-28.250353 0-41.923765 0.692706-9.456941-46.140235-19.968-91.949176-28.099765-138.179765-7.981176 44.965647-18.371765 89.509647-27.437176 134.113883-13.131294-0.692706-26.262588-1.505882-39.454118-2.409412-11.294118-61.199059-24.636235-122.066824-35.297882-183.416471a2728.056471 2728.056471 0 0 1 35.297882-1.475764c7.047529 44.333176 15.028706 88.455529 21.172706 132.818823 9.456941-45.477647 19.275294-90.955294 29.063529-136.463059z" fill="#4384F5" p-id="7974"></path></svg>